<mxfile host="app.diagrams.net" agent="Mozilla/5.0 (Windows NT 10.0; Win64; x64) AppleWebKit/537.36 (KHTML, like Gecko) Chrome/138.0.0.0 Safari/537.36 Edg/138.0.0.0" version="28.0.6">
  <diagram name="第 1 页" id="bV6xTzsIzQEbU9hgn3Zv">
    <mxGraphModel dx="2208" dy="1922" grid="1" gridSize="10" guides="1" tooltips="1" connect="1" arrows="1" fold="1" page="1" pageScale="1" pageWidth="827" pageHeight="1169" math="0" shadow="0">
      <root>
        <mxCell id="0" />
        <mxCell id="1" parent="0" />
        <mxCell id="3Vo7UrA3a4Yp9gPS8rsH-13" value="Cross-Functional Flowchart" style="shape=table;childLayout=tableLayout;startSize=40;collapsible=0;recursiveResize=0;expand=0;fontSize=16;fontStyle=1;swimlaneLine=1;" vertex="1" parent="1">
          <mxGeometry x="464" y="460" width="1406.000000000001" height="2200.0000000000027" as="geometry" />
        </mxCell>
        <mxCell id="3Vo7UrA3a4Yp9gPS8rsH-14" value="配置日程" style="shape=tableRow;horizontal=0;swimlaneHead=0;swimlaneBody=0;top=0;left=0;strokeColor=inherit;bottom=0;right=0;dropTarget=0;fontStyle=1;fillColor=none;points=[[0,0.5],[1,0.5]];portConstraint=eastwest;startSize=40;collapsible=0;recursiveResize=0;expand=0;fontSize=16;swimlaneLine=1;" vertex="1" parent="3Vo7UrA3a4Yp9gPS8rsH-13">
          <mxGeometry y="40" width="1406.000000000001" height="450" as="geometry" />
        </mxCell>
        <mxCell id="3Vo7UrA3a4Yp9gPS8rsH-15" value="鸿蒙用户" style="swimlane;swimlaneHead=0;swimlaneBody=0;fontStyle=1;strokeColor=inherit;connectable=0;fillColor=none;startSize=30;collapsible=0;recursiveResize=0;expand=0;fontSize=16;swimlaneLine=1;" vertex="1" parent="3Vo7UrA3a4Yp9gPS8rsH-14">
          <mxGeometry x="40" width="310" height="450" as="geometry">
            <mxRectangle width="310" height="450" as="alternateBounds" />
          </mxGeometry>
        </mxCell>
        <mxCell id="3Vo7UrA3a4Yp9gPS8rsH-16" value="管理员" style="swimlane;swimlaneHead=0;swimlaneBody=0;fontStyle=1;strokeColor=inherit;connectable=0;fillColor=none;startSize=30;collapsible=0;recursiveResize=0;expand=0;fontSize=16;swimlaneLine=1;" vertex="1" parent="3Vo7UrA3a4Yp9gPS8rsH-14">
          <mxGeometry x="350" width="736" height="450" as="geometry">
            <mxRectangle width="736" height="450" as="alternateBounds" />
          </mxGeometry>
        </mxCell>
        <mxCell id="3Vo7UrA3a4Yp9gPS8rsH-154" value="" style="edgeStyle=orthogonalEdgeStyle;rounded=0;orthogonalLoop=1;jettySize=auto;html=1;fontFamily=Helvetica;fontSize=12;fontColor=default;" edge="1" parent="3Vo7UrA3a4Yp9gPS8rsH-16" source="3Vo7UrA3a4Yp9gPS8rsH-152" target="3Vo7UrA3a4Yp9gPS8rsH-153">
          <mxGeometry relative="1" as="geometry" />
        </mxCell>
        <mxCell id="3Vo7UrA3a4Yp9gPS8rsH-152" value="设置基本循环规则， 如周一闭馆" style="rounded=0;whiteSpace=wrap;html=1;strokeColor=default;align=center;verticalAlign=middle;fontFamily=Helvetica;fontSize=12;fontColor=default;fillColor=default;" vertex="1" parent="3Vo7UrA3a4Yp9gPS8rsH-16">
          <mxGeometry x="304" y="60" width="120" height="60" as="geometry" />
        </mxCell>
        <mxCell id="3Vo7UrA3a4Yp9gPS8rsH-156" style="edgeStyle=orthogonalEdgeStyle;rounded=0;orthogonalLoop=1;jettySize=auto;html=1;fontFamily=Helvetica;fontSize=12;fontColor=default;" edge="1" parent="3Vo7UrA3a4Yp9gPS8rsH-16" source="3Vo7UrA3a4Yp9gPS8rsH-153" target="3Vo7UrA3a4Yp9gPS8rsH-155">
          <mxGeometry relative="1" as="geometry" />
        </mxCell>
        <mxCell id="3Vo7UrA3a4Yp9gPS8rsH-153" value="设置特殊规则，如某日特别闭馆" style="whiteSpace=wrap;html=1;rounded=0;" vertex="1" parent="3Vo7UrA3a4Yp9gPS8rsH-16">
          <mxGeometry x="304" y="163" width="120" height="60" as="geometry" />
        </mxCell>
        <mxCell id="3Vo7UrA3a4Yp9gPS8rsH-158" value="" style="edgeStyle=orthogonalEdgeStyle;rounded=0;orthogonalLoop=1;jettySize=auto;html=1;fontFamily=Helvetica;fontSize=12;fontColor=default;" edge="1" parent="3Vo7UrA3a4Yp9gPS8rsH-16" source="3Vo7UrA3a4Yp9gPS8rsH-155" target="3Vo7UrA3a4Yp9gPS8rsH-157">
          <mxGeometry relative="1" as="geometry" />
        </mxCell>
        <mxCell id="3Vo7UrA3a4Yp9gPS8rsH-155" value="调整放票总额" style="whiteSpace=wrap;html=1;rounded=0;" vertex="1" parent="3Vo7UrA3a4Yp9gPS8rsH-16">
          <mxGeometry x="304" y="267" width="120" height="60" as="geometry" />
        </mxCell>
        <mxCell id="3Vo7UrA3a4Yp9gPS8rsH-157" value="生成最终日程" style="whiteSpace=wrap;html=1;rounded=0;" vertex="1" parent="3Vo7UrA3a4Yp9gPS8rsH-16">
          <mxGeometry x="304" y="370" width="120" height="60" as="geometry" />
        </mxCell>
        <mxCell id="3Vo7UrA3a4Yp9gPS8rsH-126" value="非鸿蒙用户" style="swimlane;swimlaneHead=0;swimlaneBody=0;fontStyle=1;strokeColor=inherit;connectable=0;fillColor=none;startSize=30;collapsible=0;recursiveResize=0;expand=0;fontSize=16;swimlaneLine=1;" vertex="1" parent="3Vo7UrA3a4Yp9gPS8rsH-14">
          <mxGeometry x="1086" width="320" height="450" as="geometry">
            <mxRectangle width="320" height="450" as="alternateBounds" />
          </mxGeometry>
        </mxCell>
        <mxCell id="3Vo7UrA3a4Yp9gPS8rsH-18" value="预约" style="shape=tableRow;horizontal=0;swimlaneHead=0;swimlaneBody=0;top=0;left=0;strokeColor=inherit;bottom=0;right=0;dropTarget=0;fontStyle=1;fillColor=none;points=[[0,0.5],[1,0.5]];portConstraint=eastwest;startSize=40;collapsible=0;recursiveResize=0;expand=0;fontSize=16;swimlaneLine=1;" vertex="1" parent="3Vo7UrA3a4Yp9gPS8rsH-13">
          <mxGeometry y="490" width="1406.000000000001" height="790" as="geometry" />
        </mxCell>
        <mxCell id="3Vo7UrA3a4Yp9gPS8rsH-19" value="" style="swimlane;swimlaneHead=0;swimlaneBody=0;fontStyle=1;connectable=0;strokeColor=inherit;fillColor=none;startSize=0;collapsible=0;recursiveResize=0;expand=0;fontSize=16;swimlaneLine=1;" vertex="1" parent="3Vo7UrA3a4Yp9gPS8rsH-18">
          <mxGeometry x="40" width="310" height="790" as="geometry">
            <mxRectangle width="310" height="790" as="alternateBounds" />
          </mxGeometry>
        </mxCell>
        <mxCell id="3Vo7UrA3a4Yp9gPS8rsH-161" value="" style="edgeStyle=orthogonalEdgeStyle;rounded=0;orthogonalLoop=1;jettySize=auto;html=1;fontFamily=Helvetica;fontSize=12;fontColor=default;" edge="1" parent="3Vo7UrA3a4Yp9gPS8rsH-19" source="3Vo7UrA3a4Yp9gPS8rsH-159" target="3Vo7UrA3a4Yp9gPS8rsH-160">
          <mxGeometry relative="1" as="geometry" />
        </mxCell>
        <mxCell id="3Vo7UrA3a4Yp9gPS8rsH-159" value="登陆元服务" style="whiteSpace=wrap;html=1;rounded=0;" vertex="1" parent="3Vo7UrA3a4Yp9gPS8rsH-19">
          <mxGeometry x="95" y="40" width="120" height="60" as="geometry" />
        </mxCell>
        <mxCell id="3Vo7UrA3a4Yp9gPS8rsH-160" value="填写预约单" style="whiteSpace=wrap;html=1;rounded=0;" vertex="1" parent="3Vo7UrA3a4Yp9gPS8rsH-19">
          <mxGeometry x="95" y="170" width="120" height="60" as="geometry" />
        </mxCell>
        <mxCell id="3Vo7UrA3a4Yp9gPS8rsH-167" value="修改填写" style="whiteSpace=wrap;html=1;rounded=0;" vertex="1" parent="3Vo7UrA3a4Yp9gPS8rsH-19">
          <mxGeometry x="95" y="300" width="120" height="60" as="geometry" />
        </mxCell>
        <mxCell id="3Vo7UrA3a4Yp9gPS8rsH-170" value="从元服务&lt;br&gt;获得二维码" style="whiteSpace=wrap;html=1;rounded=0;" vertex="1" parent="3Vo7UrA3a4Yp9gPS8rsH-19">
          <mxGeometry x="95" y="560" width="120" height="60" as="geometry" />
        </mxCell>
        <mxCell id="3Vo7UrA3a4Yp9gPS8rsH-178" value="重新发起或放弃预约" style="whiteSpace=wrap;html=1;rounded=0;" vertex="1" parent="3Vo7UrA3a4Yp9gPS8rsH-19">
          <mxGeometry x="95" y="700" width="120" height="60" as="geometry" />
        </mxCell>
        <mxCell id="3Vo7UrA3a4Yp9gPS8rsH-20" value="" style="swimlane;swimlaneHead=0;swimlaneBody=0;fontStyle=1;connectable=0;strokeColor=inherit;fillColor=none;startSize=0;collapsible=0;recursiveResize=0;expand=0;fontSize=16;swimlaneLine=1;" vertex="1" parent="3Vo7UrA3a4Yp9gPS8rsH-18">
          <mxGeometry x="350" width="736" height="790" as="geometry">
            <mxRectangle width="736" height="790" as="alternateBounds" />
          </mxGeometry>
        </mxCell>
        <mxCell id="3Vo7UrA3a4Yp9gPS8rsH-180" style="edgeStyle=orthogonalEdgeStyle;rounded=0;orthogonalLoop=1;jettySize=auto;html=1;exitX=0.5;exitY=1;exitDx=0;exitDy=0;entryX=0.5;entryY=0;entryDx=0;entryDy=0;fontFamily=Helvetica;fontSize=12;fontColor=default;" edge="1" parent="3Vo7UrA3a4Yp9gPS8rsH-20" source="3Vo7UrA3a4Yp9gPS8rsH-163" target="3Vo7UrA3a4Yp9gPS8rsH-165">
          <mxGeometry relative="1" as="geometry" />
        </mxCell>
        <mxCell id="3Vo7UrA3a4Yp9gPS8rsH-163" value="审核" style="whiteSpace=wrap;html=1;rounded=0;" vertex="1" parent="3Vo7UrA3a4Yp9gPS8rsH-20">
          <mxGeometry x="122" y="40" width="120" height="60" as="geometry" />
        </mxCell>
        <mxCell id="3Vo7UrA3a4Yp9gPS8rsH-181" style="edgeStyle=orthogonalEdgeStyle;rounded=0;orthogonalLoop=1;jettySize=auto;html=1;exitX=0.5;exitY=1;exitDx=0;exitDy=0;fontFamily=Helvetica;fontSize=12;fontColor=default;" edge="1" parent="3Vo7UrA3a4Yp9gPS8rsH-20" source="3Vo7UrA3a4Yp9gPS8rsH-165" target="3Vo7UrA3a4Yp9gPS8rsH-166">
          <mxGeometry relative="1" as="geometry" />
        </mxCell>
        <mxCell id="3Vo7UrA3a4Yp9gPS8rsH-197" value="Y" style="edgeLabel;html=1;align=center;verticalAlign=middle;resizable=0;points=[];rounded=1;strokeColor=default;fontFamily=Helvetica;fontSize=12;fontColor=default;fillColor=default;" vertex="1" connectable="0" parent="3Vo7UrA3a4Yp9gPS8rsH-181">
          <mxGeometry x="-0.0751" y="-1" relative="1" as="geometry">
            <mxPoint as="offset" />
          </mxGeometry>
        </mxCell>
        <mxCell id="3Vo7UrA3a4Yp9gPS8rsH-186" style="edgeStyle=orthogonalEdgeStyle;rounded=0;orthogonalLoop=1;jettySize=auto;html=1;exitX=1;exitY=0.5;exitDx=0;exitDy=0;entryX=0.5;entryY=0;entryDx=0;entryDy=0;fontFamily=Helvetica;fontSize=12;fontColor=default;" edge="1" parent="3Vo7UrA3a4Yp9gPS8rsH-20" source="3Vo7UrA3a4Yp9gPS8rsH-165" target="3Vo7UrA3a4Yp9gPS8rsH-173">
          <mxGeometry relative="1" as="geometry">
            <Array as="points">
              <mxPoint x="308" y="200" />
              <mxPoint x="308" y="400" />
              <mxPoint x="182" y="400" />
            </Array>
          </mxGeometry>
        </mxCell>
        <mxCell id="3Vo7UrA3a4Yp9gPS8rsH-196" value="N" style="edgeLabel;html=1;align=center;verticalAlign=middle;resizable=0;points=[];rounded=1;strokeColor=default;fontFamily=Helvetica;fontSize=12;fontColor=default;fillColor=default;" vertex="1" connectable="0" parent="3Vo7UrA3a4Yp9gPS8rsH-186">
          <mxGeometry x="-0.7952" y="-1" relative="1" as="geometry">
            <mxPoint as="offset" />
          </mxGeometry>
        </mxCell>
        <mxCell id="3Vo7UrA3a4Yp9gPS8rsH-165" value="是否存在&lt;br&gt;可协调的问题" style="rhombus;whiteSpace=wrap;html=1;rounded=0;strokeColor=default;align=center;verticalAlign=middle;fontFamily=Helvetica;fontSize=12;fontColor=default;fillColor=default;" vertex="1" parent="3Vo7UrA3a4Yp9gPS8rsH-20">
          <mxGeometry x="122" y="170" width="120" height="60" as="geometry" />
        </mxCell>
        <mxCell id="3Vo7UrA3a4Yp9gPS8rsH-166" value="与用户沟通" style="whiteSpace=wrap;html=1;rounded=0;" vertex="1" parent="3Vo7UrA3a4Yp9gPS8rsH-20">
          <mxGeometry x="122" y="300" width="120" height="60" as="geometry" />
        </mxCell>
        <mxCell id="3Vo7UrA3a4Yp9gPS8rsH-185" style="edgeStyle=orthogonalEdgeStyle;rounded=0;orthogonalLoop=1;jettySize=auto;html=1;exitX=0.5;exitY=1;exitDx=0;exitDy=0;entryX=0.5;entryY=0;entryDx=0;entryDy=0;fontFamily=Helvetica;fontSize=12;fontColor=default;" edge="1" parent="3Vo7UrA3a4Yp9gPS8rsH-20" source="3Vo7UrA3a4Yp9gPS8rsH-173" target="3Vo7UrA3a4Yp9gPS8rsH-175">
          <mxGeometry relative="1" as="geometry" />
        </mxCell>
        <mxCell id="3Vo7UrA3a4Yp9gPS8rsH-195" value="N" style="edgeLabel;html=1;align=center;verticalAlign=middle;resizable=0;points=[];rounded=1;strokeColor=default;fontFamily=Helvetica;fontSize=12;fontColor=default;fillColor=default;" vertex="1" connectable="0" parent="3Vo7UrA3a4Yp9gPS8rsH-185">
          <mxGeometry x="-0.2338" y="-1" relative="1" as="geometry">
            <mxPoint as="offset" />
          </mxGeometry>
        </mxCell>
        <mxCell id="3Vo7UrA3a4Yp9gPS8rsH-202" style="edgeStyle=orthogonalEdgeStyle;rounded=0;orthogonalLoop=1;jettySize=auto;html=1;exitX=1;exitY=0.5;exitDx=0;exitDy=0;entryX=1;entryY=0.5;entryDx=0;entryDy=0;fontFamily=Helvetica;fontSize=12;fontColor=default;" edge="1" parent="3Vo7UrA3a4Yp9gPS8rsH-20" source="3Vo7UrA3a4Yp9gPS8rsH-173" target="3Vo7UrA3a4Yp9gPS8rsH-177">
          <mxGeometry relative="1" as="geometry">
            <Array as="points">
              <mxPoint x="308" y="460" />
              <mxPoint x="308" y="730" />
            </Array>
          </mxGeometry>
        </mxCell>
        <mxCell id="3Vo7UrA3a4Yp9gPS8rsH-203" value="Y" style="edgeLabel;html=1;align=center;verticalAlign=middle;resizable=0;points=[];rounded=1;strokeColor=default;fontFamily=Helvetica;fontSize=12;fontColor=default;fillColor=default;" vertex="1" connectable="0" parent="3Vo7UrA3a4Yp9gPS8rsH-202">
          <mxGeometry x="-0.8181" y="2" relative="1" as="geometry">
            <mxPoint as="offset" />
          </mxGeometry>
        </mxCell>
        <mxCell id="3Vo7UrA3a4Yp9gPS8rsH-173" value="是否存在&lt;br&gt;不可协调的问题" style="rhombus;whiteSpace=wrap;html=1;rounded=0;strokeColor=default;align=center;verticalAlign=middle;fontFamily=Helvetica;fontSize=12;fontColor=default;fillColor=default;" vertex="1" parent="3Vo7UrA3a4Yp9gPS8rsH-20">
          <mxGeometry x="122" y="430" width="120" height="60" as="geometry" />
        </mxCell>
        <mxCell id="3Vo7UrA3a4Yp9gPS8rsH-175" value="通过" style="whiteSpace=wrap;html=1;rounded=0;" vertex="1" parent="3Vo7UrA3a4Yp9gPS8rsH-20">
          <mxGeometry x="122" y="560" width="120" height="60" as="geometry" />
        </mxCell>
        <mxCell id="3Vo7UrA3a4Yp9gPS8rsH-177" value="拒绝" style="whiteSpace=wrap;html=1;rounded=0;" vertex="1" parent="3Vo7UrA3a4Yp9gPS8rsH-20">
          <mxGeometry x="122" y="700" width="120" height="60" as="geometry" />
        </mxCell>
        <mxCell id="3Vo7UrA3a4Yp9gPS8rsH-307" style="edgeStyle=orthogonalEdgeStyle;rounded=0;orthogonalLoop=1;jettySize=auto;html=1;exitX=0.5;exitY=1;exitDx=0;exitDy=0;entryX=0.5;entryY=0;entryDx=0;entryDy=0;fontFamily=Helvetica;fontSize=12;fontColor=default;" edge="1" parent="3Vo7UrA3a4Yp9gPS8rsH-20" source="3Vo7UrA3a4Yp9gPS8rsH-208" target="3Vo7UrA3a4Yp9gPS8rsH-305">
          <mxGeometry relative="1" as="geometry" />
        </mxCell>
        <mxCell id="3Vo7UrA3a4Yp9gPS8rsH-208" value="审核" style="whiteSpace=wrap;html=1;rounded=0;" vertex="1" parent="3Vo7UrA3a4Yp9gPS8rsH-20">
          <mxGeometry x="496" y="50" width="120" height="60" as="geometry" />
        </mxCell>
        <mxCell id="3Vo7UrA3a4Yp9gPS8rsH-326" style="edgeStyle=orthogonalEdgeStyle;rounded=0;orthogonalLoop=1;jettySize=auto;html=1;exitX=0;exitY=0.5;exitDx=0;exitDy=0;entryX=0;entryY=0.5;entryDx=0;entryDy=0;fontFamily=Helvetica;fontSize=12;fontColor=default;" edge="1" parent="3Vo7UrA3a4Yp9gPS8rsH-20" source="3Vo7UrA3a4Yp9gPS8rsH-210" target="3Vo7UrA3a4Yp9gPS8rsH-213">
          <mxGeometry relative="1" as="geometry">
            <Array as="points">
              <mxPoint x="416" y="460" />
              <mxPoint x="416" y="720" />
            </Array>
          </mxGeometry>
        </mxCell>
        <mxCell id="3Vo7UrA3a4Yp9gPS8rsH-327" value="Y" style="edgeLabel;html=1;align=center;verticalAlign=middle;resizable=0;points=[];rounded=1;strokeColor=default;fontFamily=Helvetica;fontSize=12;fontColor=default;fillColor=default;" vertex="1" connectable="0" parent="3Vo7UrA3a4Yp9gPS8rsH-326">
          <mxGeometry x="-0.8162" y="-4" relative="1" as="geometry">
            <mxPoint as="offset" />
          </mxGeometry>
        </mxCell>
        <mxCell id="3Vo7UrA3a4Yp9gPS8rsH-328" style="edgeStyle=orthogonalEdgeStyle;rounded=0;orthogonalLoop=1;jettySize=auto;html=1;exitX=0.5;exitY=1;exitDx=0;exitDy=0;entryX=0.5;entryY=0;entryDx=0;entryDy=0;fontFamily=Helvetica;fontSize=12;fontColor=default;" edge="1" parent="3Vo7UrA3a4Yp9gPS8rsH-20" source="3Vo7UrA3a4Yp9gPS8rsH-210" target="3Vo7UrA3a4Yp9gPS8rsH-212">
          <mxGeometry relative="1" as="geometry" />
        </mxCell>
        <mxCell id="3Vo7UrA3a4Yp9gPS8rsH-329" value="N" style="edgeLabel;html=1;align=center;verticalAlign=middle;resizable=0;points=[];rounded=1;strokeColor=default;fontFamily=Helvetica;fontSize=12;fontColor=default;fillColor=default;" vertex="1" connectable="0" parent="3Vo7UrA3a4Yp9gPS8rsH-328">
          <mxGeometry x="-0.1255" y="-3" relative="1" as="geometry">
            <mxPoint as="offset" />
          </mxGeometry>
        </mxCell>
        <mxCell id="3Vo7UrA3a4Yp9gPS8rsH-210" value="是否存在&lt;br&gt;不可协调的问题" style="rhombus;whiteSpace=wrap;html=1;rounded=0;strokeColor=default;align=center;verticalAlign=middle;fontFamily=Helvetica;fontSize=12;fontColor=default;fillColor=default;" vertex="1" parent="3Vo7UrA3a4Yp9gPS8rsH-20">
          <mxGeometry x="496" y="430" width="120" height="60" as="geometry" />
        </mxCell>
        <mxCell id="3Vo7UrA3a4Yp9gPS8rsH-212" value="通过" style="whiteSpace=wrap;html=1;rounded=0;" vertex="1" parent="3Vo7UrA3a4Yp9gPS8rsH-20">
          <mxGeometry x="496" y="560" width="120" height="60" as="geometry" />
        </mxCell>
        <mxCell id="3Vo7UrA3a4Yp9gPS8rsH-213" value="拒绝" style="whiteSpace=wrap;html=1;rounded=0;" vertex="1" parent="3Vo7UrA3a4Yp9gPS8rsH-20">
          <mxGeometry x="496" y="690" width="120" height="60" as="geometry" />
        </mxCell>
        <mxCell id="3Vo7UrA3a4Yp9gPS8rsH-223" value="重新发起或放弃预约" style="whiteSpace=wrap;html=1;rounded=0;" vertex="1" parent="3Vo7UrA3a4Yp9gPS8rsH-20">
          <mxGeometry x="836" y="690" width="120" height="60" as="geometry" />
        </mxCell>
        <mxCell id="3Vo7UrA3a4Yp9gPS8rsH-224" style="edgeStyle=orthogonalEdgeStyle;rounded=0;orthogonalLoop=1;jettySize=auto;html=1;exitX=1;exitY=0.5;exitDx=0;exitDy=0;entryX=0;entryY=0.5;entryDx=0;entryDy=0;fontFamily=Helvetica;fontSize=12;fontColor=default;" edge="1" parent="3Vo7UrA3a4Yp9gPS8rsH-20" source="3Vo7UrA3a4Yp9gPS8rsH-213" target="3Vo7UrA3a4Yp9gPS8rsH-223">
          <mxGeometry relative="1" as="geometry" />
        </mxCell>
        <mxCell id="3Vo7UrA3a4Yp9gPS8rsH-227" value="无通知" style="edgeLabel;html=1;align=center;verticalAlign=middle;resizable=0;points=[];rounded=1;strokeColor=default;fontFamily=Helvetica;fontSize=12;fontColor=default;fillColor=default;" vertex="1" connectable="0" parent="3Vo7UrA3a4Yp9gPS8rsH-224">
          <mxGeometry x="-0.0834" y="3" relative="1" as="geometry">
            <mxPoint as="offset" />
          </mxGeometry>
        </mxCell>
        <mxCell id="3Vo7UrA3a4Yp9gPS8rsH-222" value="从H5&lt;br&gt;获得二维码" style="whiteSpace=wrap;html=1;rounded=0;" vertex="1" parent="3Vo7UrA3a4Yp9gPS8rsH-20">
          <mxGeometry x="836" y="560" width="120" height="60" as="geometry" />
        </mxCell>
        <mxCell id="3Vo7UrA3a4Yp9gPS8rsH-225" style="edgeStyle=orthogonalEdgeStyle;rounded=0;orthogonalLoop=1;jettySize=auto;html=1;exitX=1;exitY=0.5;exitDx=0;exitDy=0;fontFamily=Helvetica;fontSize=12;fontColor=default;" edge="1" parent="3Vo7UrA3a4Yp9gPS8rsH-20" source="3Vo7UrA3a4Yp9gPS8rsH-212" target="3Vo7UrA3a4Yp9gPS8rsH-222">
          <mxGeometry relative="1" as="geometry" />
        </mxCell>
        <mxCell id="3Vo7UrA3a4Yp9gPS8rsH-226" value="无通知" style="edgeLabel;html=1;align=center;verticalAlign=middle;resizable=0;points=[];rounded=1;strokeColor=default;fontFamily=Helvetica;fontSize=12;fontColor=default;fillColor=default;" vertex="1" connectable="0" parent="3Vo7UrA3a4Yp9gPS8rsH-225">
          <mxGeometry x="0.0219" y="-2" relative="1" as="geometry">
            <mxPoint as="offset" />
          </mxGeometry>
        </mxCell>
        <mxCell id="3Vo7UrA3a4Yp9gPS8rsH-313" style="edgeStyle=orthogonalEdgeStyle;rounded=0;orthogonalLoop=1;jettySize=auto;html=1;exitX=0.5;exitY=1;exitDx=0;exitDy=0;fontFamily=Helvetica;fontSize=12;fontColor=default;" edge="1" parent="3Vo7UrA3a4Yp9gPS8rsH-20" source="3Vo7UrA3a4Yp9gPS8rsH-305" target="3Vo7UrA3a4Yp9gPS8rsH-306">
          <mxGeometry relative="1" as="geometry" />
        </mxCell>
        <mxCell id="3Vo7UrA3a4Yp9gPS8rsH-325" value="Y" style="edgeLabel;html=1;align=center;verticalAlign=middle;resizable=0;points=[];rounded=1;strokeColor=default;fontFamily=Helvetica;fontSize=12;fontColor=default;fillColor=default;" vertex="1" connectable="0" parent="3Vo7UrA3a4Yp9gPS8rsH-313">
          <mxGeometry x="-0.1865" relative="1" as="geometry">
            <mxPoint as="offset" />
          </mxGeometry>
        </mxCell>
        <mxCell id="3Vo7UrA3a4Yp9gPS8rsH-323" style="edgeStyle=orthogonalEdgeStyle;rounded=0;orthogonalLoop=1;jettySize=auto;html=1;exitX=0;exitY=0.5;exitDx=0;exitDy=0;entryX=0.5;entryY=0;entryDx=0;entryDy=0;fontFamily=Helvetica;fontSize=12;fontColor=default;" edge="1" parent="3Vo7UrA3a4Yp9gPS8rsH-20" source="3Vo7UrA3a4Yp9gPS8rsH-305" target="3Vo7UrA3a4Yp9gPS8rsH-210">
          <mxGeometry relative="1" as="geometry">
            <Array as="points">
              <mxPoint x="416" y="200" />
              <mxPoint x="416" y="390" />
              <mxPoint x="556" y="390" />
            </Array>
          </mxGeometry>
        </mxCell>
        <mxCell id="3Vo7UrA3a4Yp9gPS8rsH-324" value="N" style="edgeLabel;html=1;align=center;verticalAlign=middle;resizable=0;points=[];rounded=1;strokeColor=default;fontFamily=Helvetica;fontSize=12;fontColor=default;fillColor=default;" vertex="1" connectable="0" parent="3Vo7UrA3a4Yp9gPS8rsH-323">
          <mxGeometry x="-0.8452" y="-2" relative="1" as="geometry">
            <mxPoint as="offset" />
          </mxGeometry>
        </mxCell>
        <mxCell id="3Vo7UrA3a4Yp9gPS8rsH-305" value="是否存在&lt;br&gt;可协调的问题" style="rhombus;whiteSpace=wrap;html=1;rounded=0;strokeColor=default;align=center;verticalAlign=middle;fontFamily=Helvetica;fontSize=12;fontColor=default;fillColor=default;" vertex="1" parent="3Vo7UrA3a4Yp9gPS8rsH-20">
          <mxGeometry x="496" y="170" width="120" height="60" as="geometry" />
        </mxCell>
        <mxCell id="3Vo7UrA3a4Yp9gPS8rsH-306" value="与用户沟通" style="whiteSpace=wrap;html=1;rounded=0;" vertex="1" parent="3Vo7UrA3a4Yp9gPS8rsH-20">
          <mxGeometry x="496" y="300" width="120" height="60" as="geometry" />
        </mxCell>
        <mxCell id="3Vo7UrA3a4Yp9gPS8rsH-127" style="swimlane;swimlaneHead=0;swimlaneBody=0;fontStyle=1;connectable=0;strokeColor=inherit;fillColor=none;startSize=0;collapsible=0;recursiveResize=0;expand=0;fontSize=16;swimlaneLine=1;" vertex="1" parent="3Vo7UrA3a4Yp9gPS8rsH-18">
          <mxGeometry x="1086" width="320" height="790" as="geometry">
            <mxRectangle width="320" height="790" as="alternateBounds" />
          </mxGeometry>
        </mxCell>
        <mxCell id="3Vo7UrA3a4Yp9gPS8rsH-207" style="edgeStyle=orthogonalEdgeStyle;rounded=0;orthogonalLoop=1;jettySize=auto;html=1;exitX=0.5;exitY=1;exitDx=0;exitDy=0;fontFamily=Helvetica;fontSize=12;fontColor=default;" edge="1" parent="3Vo7UrA3a4Yp9gPS8rsH-127" source="3Vo7UrA3a4Yp9gPS8rsH-205" target="3Vo7UrA3a4Yp9gPS8rsH-206">
          <mxGeometry relative="1" as="geometry" />
        </mxCell>
        <mxCell id="3Vo7UrA3a4Yp9gPS8rsH-205" value="扫描二维码&lt;br&gt;进入H5页面,注册账号" style="whiteSpace=wrap;html=1;rounded=0;" vertex="1" parent="3Vo7UrA3a4Yp9gPS8rsH-127">
          <mxGeometry x="100" y="40" width="120" height="60" as="geometry" />
        </mxCell>
        <mxCell id="3Vo7UrA3a4Yp9gPS8rsH-206" value="填写预约单" style="whiteSpace=wrap;html=1;rounded=0;" vertex="1" parent="3Vo7UrA3a4Yp9gPS8rsH-127">
          <mxGeometry x="100" y="170" width="120" height="60" as="geometry" />
        </mxCell>
        <mxCell id="3Vo7UrA3a4Yp9gPS8rsH-316" value="修改填写" style="whiteSpace=wrap;html=1;rounded=0;" vertex="1" parent="3Vo7UrA3a4Yp9gPS8rsH-127">
          <mxGeometry x="100" y="300" width="120" height="60" as="geometry" />
        </mxCell>
        <mxCell id="3Vo7UrA3a4Yp9gPS8rsH-179" style="edgeStyle=orthogonalEdgeStyle;rounded=0;orthogonalLoop=1;jettySize=auto;html=1;entryX=0;entryY=0.5;entryDx=0;entryDy=0;fontFamily=Helvetica;fontSize=12;fontColor=default;" edge="1" parent="3Vo7UrA3a4Yp9gPS8rsH-18" source="3Vo7UrA3a4Yp9gPS8rsH-160" target="3Vo7UrA3a4Yp9gPS8rsH-163">
          <mxGeometry relative="1" as="geometry" />
        </mxCell>
        <mxCell id="3Vo7UrA3a4Yp9gPS8rsH-182" style="edgeStyle=orthogonalEdgeStyle;rounded=0;orthogonalLoop=1;jettySize=auto;html=1;fontFamily=Helvetica;fontSize=12;fontColor=default;" edge="1" parent="3Vo7UrA3a4Yp9gPS8rsH-18" source="3Vo7UrA3a4Yp9gPS8rsH-166" target="3Vo7UrA3a4Yp9gPS8rsH-167">
          <mxGeometry relative="1" as="geometry" />
        </mxCell>
        <mxCell id="3Vo7UrA3a4Yp9gPS8rsH-198" value="通过元服务通知" style="edgeLabel;html=1;align=center;verticalAlign=middle;resizable=0;points=[];rounded=1;strokeColor=default;fontFamily=Helvetica;fontSize=12;fontColor=default;fillColor=default;" vertex="1" connectable="0" parent="3Vo7UrA3a4Yp9gPS8rsH-182">
          <mxGeometry x="0.003" y="-2" relative="1" as="geometry">
            <mxPoint as="offset" />
          </mxGeometry>
        </mxCell>
        <mxCell id="3Vo7UrA3a4Yp9gPS8rsH-190" style="edgeStyle=orthogonalEdgeStyle;rounded=0;orthogonalLoop=1;jettySize=auto;html=1;exitX=0.5;exitY=1;exitDx=0;exitDy=0;entryX=0;entryY=0.5;entryDx=0;entryDy=0;fontFamily=Helvetica;fontSize=12;fontColor=default;" edge="1" parent="3Vo7UrA3a4Yp9gPS8rsH-18" source="3Vo7UrA3a4Yp9gPS8rsH-167" target="3Vo7UrA3a4Yp9gPS8rsH-173">
          <mxGeometry relative="1" as="geometry">
            <Array as="points">
              <mxPoint x="196" y="460" />
            </Array>
          </mxGeometry>
        </mxCell>
        <mxCell id="3Vo7UrA3a4Yp9gPS8rsH-193" style="edgeStyle=orthogonalEdgeStyle;rounded=0;orthogonalLoop=1;jettySize=auto;html=1;exitX=0;exitY=0.5;exitDx=0;exitDy=0;entryX=1;entryY=0.5;entryDx=0;entryDy=0;fontFamily=Helvetica;fontSize=12;fontColor=default;" edge="1" parent="3Vo7UrA3a4Yp9gPS8rsH-18" source="3Vo7UrA3a4Yp9gPS8rsH-175" target="3Vo7UrA3a4Yp9gPS8rsH-170">
          <mxGeometry relative="1" as="geometry" />
        </mxCell>
        <mxCell id="3Vo7UrA3a4Yp9gPS8rsH-199" value="通过元服务通知" style="edgeLabel;html=1;align=center;verticalAlign=middle;resizable=0;points=[];rounded=1;strokeColor=default;fontFamily=Helvetica;fontSize=12;fontColor=default;fillColor=default;" vertex="1" connectable="0" parent="3Vo7UrA3a4Yp9gPS8rsH-193">
          <mxGeometry x="-0.1364" y="-1" relative="1" as="geometry">
            <mxPoint as="offset" />
          </mxGeometry>
        </mxCell>
        <mxCell id="3Vo7UrA3a4Yp9gPS8rsH-194" style="edgeStyle=orthogonalEdgeStyle;rounded=0;orthogonalLoop=1;jettySize=auto;html=1;exitX=0;exitY=0.5;exitDx=0;exitDy=0;entryX=1;entryY=0.5;entryDx=0;entryDy=0;fontFamily=Helvetica;fontSize=12;fontColor=default;" edge="1" parent="3Vo7UrA3a4Yp9gPS8rsH-18" source="3Vo7UrA3a4Yp9gPS8rsH-177" target="3Vo7UrA3a4Yp9gPS8rsH-178">
          <mxGeometry relative="1" as="geometry" />
        </mxCell>
        <mxCell id="3Vo7UrA3a4Yp9gPS8rsH-204" value="通过元服务通知" style="edgeLabel;html=1;align=center;verticalAlign=middle;resizable=0;points=[];rounded=1;strokeColor=default;fontFamily=Helvetica;fontSize=12;fontColor=default;fillColor=default;" vertex="1" connectable="0" parent="3Vo7UrA3a4Yp9gPS8rsH-194">
          <mxGeometry x="-0.0737" y="3" relative="1" as="geometry">
            <mxPoint as="offset" />
          </mxGeometry>
        </mxCell>
        <mxCell id="3Vo7UrA3a4Yp9gPS8rsH-209" style="edgeStyle=orthogonalEdgeStyle;rounded=0;orthogonalLoop=1;jettySize=auto;html=1;exitX=0;exitY=0.5;exitDx=0;exitDy=0;entryX=1;entryY=0.5;entryDx=0;entryDy=0;fontFamily=Helvetica;fontSize=12;fontColor=default;" edge="1" parent="3Vo7UrA3a4Yp9gPS8rsH-18" source="3Vo7UrA3a4Yp9gPS8rsH-206" target="3Vo7UrA3a4Yp9gPS8rsH-208">
          <mxGeometry relative="1" as="geometry" />
        </mxCell>
        <mxCell id="3Vo7UrA3a4Yp9gPS8rsH-317" style="edgeStyle=orthogonalEdgeStyle;rounded=0;orthogonalLoop=1;jettySize=auto;html=1;exitX=1;exitY=0.5;exitDx=0;exitDy=0;entryX=0;entryY=0.5;entryDx=0;entryDy=0;fontFamily=Helvetica;fontSize=12;fontColor=default;" edge="1" parent="3Vo7UrA3a4Yp9gPS8rsH-18" source="3Vo7UrA3a4Yp9gPS8rsH-306" target="3Vo7UrA3a4Yp9gPS8rsH-316">
          <mxGeometry relative="1" as="geometry" />
        </mxCell>
        <mxCell id="3Vo7UrA3a4Yp9gPS8rsH-330" value="无通知" style="edgeLabel;html=1;align=center;verticalAlign=middle;resizable=0;points=[];rounded=1;strokeColor=default;fontFamily=Helvetica;fontSize=12;fontColor=default;fillColor=default;" vertex="1" connectable="0" parent="3Vo7UrA3a4Yp9gPS8rsH-317">
          <mxGeometry x="-0.0328" y="2" relative="1" as="geometry">
            <mxPoint as="offset" />
          </mxGeometry>
        </mxCell>
        <mxCell id="3Vo7UrA3a4Yp9gPS8rsH-321" style="edgeStyle=orthogonalEdgeStyle;rounded=0;orthogonalLoop=1;jettySize=auto;html=1;exitX=0.5;exitY=1;exitDx=0;exitDy=0;entryX=1;entryY=0.5;entryDx=0;entryDy=0;fontFamily=Helvetica;fontSize=12;fontColor=default;" edge="1" parent="3Vo7UrA3a4Yp9gPS8rsH-18" source="3Vo7UrA3a4Yp9gPS8rsH-316" target="3Vo7UrA3a4Yp9gPS8rsH-210">
          <mxGeometry relative="1" as="geometry" />
        </mxCell>
        <mxCell id="3Vo7UrA3a4Yp9gPS8rsH-22" value="导入预约" style="shape=tableRow;horizontal=0;swimlaneHead=0;swimlaneBody=0;top=0;left=0;strokeColor=inherit;bottom=0;right=0;dropTarget=0;fontStyle=1;fillColor=none;points=[[0,0.5],[1,0.5]];portConstraint=eastwest;startSize=40;collapsible=0;recursiveResize=0;expand=0;fontSize=16;swimlaneLine=1;" vertex="1" parent="3Vo7UrA3a4Yp9gPS8rsH-13">
          <mxGeometry y="1280" width="1406.000000000001" height="570" as="geometry" />
        </mxCell>
        <mxCell id="3Vo7UrA3a4Yp9gPS8rsH-23" value="" style="swimlane;swimlaneHead=0;swimlaneBody=0;fontStyle=1;connectable=0;strokeColor=inherit;fillColor=none;startSize=0;collapsible=0;recursiveResize=0;expand=0;fontSize=16;swimlaneLine=1;" vertex="1" parent="3Vo7UrA3a4Yp9gPS8rsH-22">
          <mxGeometry x="40" width="310" height="570" as="geometry">
            <mxRectangle width="310" height="570" as="alternateBounds" />
          </mxGeometry>
        </mxCell>
        <mxCell id="3Vo7UrA3a4Yp9gPS8rsH-239" value="登陆元服务&lt;br&gt;获取二维码" style="whiteSpace=wrap;html=1;rounded=0;" vertex="1" parent="3Vo7UrA3a4Yp9gPS8rsH-23">
          <mxGeometry x="95" y="461" width="120" height="60" as="geometry" />
        </mxCell>
        <mxCell id="3Vo7UrA3a4Yp9gPS8rsH-24" value="" style="swimlane;swimlaneHead=0;swimlaneBody=0;fontStyle=1;connectable=0;strokeColor=inherit;fillColor=none;startSize=0;collapsible=0;recursiveResize=0;expand=0;fontSize=16;swimlaneLine=1;" vertex="1" parent="3Vo7UrA3a4Yp9gPS8rsH-22">
          <mxGeometry x="350" width="736" height="570" as="geometry">
            <mxRectangle width="736" height="570" as="alternateBounds" />
          </mxGeometry>
        </mxCell>
        <mxCell id="3Vo7UrA3a4Yp9gPS8rsH-232" value="" style="edgeStyle=orthogonalEdgeStyle;rounded=0;orthogonalLoop=1;jettySize=auto;html=1;fontFamily=Helvetica;fontSize=12;fontColor=default;" edge="1" parent="3Vo7UrA3a4Yp9gPS8rsH-24" source="3Vo7UrA3a4Yp9gPS8rsH-233" target="3Vo7UrA3a4Yp9gPS8rsH-235">
          <mxGeometry relative="1" as="geometry" />
        </mxCell>
        <mxCell id="3Vo7UrA3a4Yp9gPS8rsH-233" value="新建预约" style="rounded=0;whiteSpace=wrap;html=1;strokeColor=default;align=center;verticalAlign=middle;fontFamily=Helvetica;fontSize=12;fontColor=default;fillColor=default;" vertex="1" parent="3Vo7UrA3a4Yp9gPS8rsH-24">
          <mxGeometry x="122" y="30" width="120" height="60" as="geometry" />
        </mxCell>
        <mxCell id="3Vo7UrA3a4Yp9gPS8rsH-249" style="edgeStyle=orthogonalEdgeStyle;rounded=0;orthogonalLoop=1;jettySize=auto;html=1;exitX=1;exitY=0.5;exitDx=0;exitDy=0;fontFamily=Helvetica;fontSize=12;fontColor=default;" edge="1" parent="3Vo7UrA3a4Yp9gPS8rsH-24" source="3Vo7UrA3a4Yp9gPS8rsH-235" target="3Vo7UrA3a4Yp9gPS8rsH-248">
          <mxGeometry relative="1" as="geometry" />
        </mxCell>
        <mxCell id="3Vo7UrA3a4Yp9gPS8rsH-235" value="填写预约信息" style="whiteSpace=wrap;html=1;rounded=0;" vertex="1" parent="3Vo7UrA3a4Yp9gPS8rsH-24">
          <mxGeometry x="122" y="133" width="120" height="60" as="geometry" />
        </mxCell>
        <mxCell id="3Vo7UrA3a4Yp9gPS8rsH-237" value="自动通过" style="whiteSpace=wrap;html=1;rounded=0;" vertex="1" parent="3Vo7UrA3a4Yp9gPS8rsH-24">
          <mxGeometry x="308" y="461" width="120" height="60" as="geometry" />
        </mxCell>
        <mxCell id="3Vo7UrA3a4Yp9gPS8rsH-250" style="edgeStyle=orthogonalEdgeStyle;rounded=0;orthogonalLoop=1;jettySize=auto;html=1;exitX=0;exitY=0.5;exitDx=0;exitDy=0;fontFamily=Helvetica;fontSize=12;fontColor=default;entryX=0.5;entryY=0;entryDx=0;entryDy=0;" edge="1" parent="3Vo7UrA3a4Yp9gPS8rsH-24" source="3Vo7UrA3a4Yp9gPS8rsH-245" target="3Vo7UrA3a4Yp9gPS8rsH-248">
          <mxGeometry relative="1" as="geometry">
            <mxPoint x="366" y="200" as="targetPoint" />
          </mxGeometry>
        </mxCell>
        <mxCell id="3Vo7UrA3a4Yp9gPS8rsH-245" value="批量导入预约信息" style="rounded=0;whiteSpace=wrap;html=1;strokeColor=default;align=center;verticalAlign=middle;fontFamily=Helvetica;fontSize=12;fontColor=default;fillColor=default;" vertex="1" parent="3Vo7UrA3a4Yp9gPS8rsH-24">
          <mxGeometry x="496" y="30" width="120" height="60" as="geometry" />
        </mxCell>
        <mxCell id="3Vo7UrA3a4Yp9gPS8rsH-264" style="edgeStyle=orthogonalEdgeStyle;rounded=0;orthogonalLoop=1;jettySize=auto;html=1;exitX=0;exitY=0.5;exitDx=0;exitDy=0;fontFamily=Helvetica;fontSize=12;fontColor=default;" edge="1" parent="3Vo7UrA3a4Yp9gPS8rsH-24" source="3Vo7UrA3a4Yp9gPS8rsH-248" target="3Vo7UrA3a4Yp9gPS8rsH-237">
          <mxGeometry relative="1" as="geometry">
            <Array as="points">
              <mxPoint x="266" y="240" />
              <mxPoint x="266" y="430" />
              <mxPoint x="368" y="430" />
            </Array>
          </mxGeometry>
        </mxCell>
        <mxCell id="3Vo7UrA3a4Yp9gPS8rsH-265" value="否" style="edgeLabel;html=1;align=center;verticalAlign=middle;resizable=0;points=[];rounded=1;strokeColor=default;fontFamily=Helvetica;fontSize=12;fontColor=default;fillColor=default;" vertex="1" connectable="0" parent="3Vo7UrA3a4Yp9gPS8rsH-264">
          <mxGeometry x="-0.8714" y="3" relative="1" as="geometry">
            <mxPoint as="offset" />
          </mxGeometry>
        </mxCell>
        <mxCell id="3Vo7UrA3a4Yp9gPS8rsH-248" value="是否需要&lt;br&gt;校验当日剩余票额" style="rhombus;whiteSpace=wrap;html=1;rounded=0;strokeColor=default;align=center;verticalAlign=middle;fontFamily=Helvetica;fontSize=12;fontColor=default;fillColor=default;" vertex="1" parent="3Vo7UrA3a4Yp9gPS8rsH-24">
          <mxGeometry x="308" y="210" width="120" height="60" as="geometry" />
        </mxCell>
        <mxCell id="3Vo7UrA3a4Yp9gPS8rsH-266" style="edgeStyle=orthogonalEdgeStyle;rounded=0;orthogonalLoop=1;jettySize=auto;html=1;exitX=0.5;exitY=1;exitDx=0;exitDy=0;entryX=0.5;entryY=0;entryDx=0;entryDy=0;fontFamily=Helvetica;fontSize=12;fontColor=default;" edge="1" parent="3Vo7UrA3a4Yp9gPS8rsH-24" source="3Vo7UrA3a4Yp9gPS8rsH-253" target="3Vo7UrA3a4Yp9gPS8rsH-237">
          <mxGeometry relative="1" as="geometry" />
        </mxCell>
        <mxCell id="3Vo7UrA3a4Yp9gPS8rsH-267" value="否" style="edgeLabel;html=1;align=center;verticalAlign=middle;resizable=0;points=[];rounded=1;strokeColor=default;fontFamily=Helvetica;fontSize=12;fontColor=default;fillColor=default;" vertex="1" connectable="0" parent="3Vo7UrA3a4Yp9gPS8rsH-266">
          <mxGeometry x="-0.5309" relative="1" as="geometry">
            <mxPoint as="offset" />
          </mxGeometry>
        </mxCell>
        <mxCell id="3Vo7UrA3a4Yp9gPS8rsH-268" style="edgeStyle=orthogonalEdgeStyle;rounded=0;orthogonalLoop=1;jettySize=auto;html=1;exitX=1;exitY=0.5;exitDx=0;exitDy=0;fontFamily=Helvetica;fontSize=12;fontColor=default;" edge="1" parent="3Vo7UrA3a4Yp9gPS8rsH-24" source="3Vo7UrA3a4Yp9gPS8rsH-253">
          <mxGeometry relative="1" as="geometry">
            <mxPoint x="496" y="360" as="targetPoint" />
          </mxGeometry>
        </mxCell>
        <mxCell id="3Vo7UrA3a4Yp9gPS8rsH-269" value="是" style="edgeLabel;html=1;align=center;verticalAlign=middle;resizable=0;points=[];rounded=1;strokeColor=default;fontFamily=Helvetica;fontSize=12;fontColor=default;fillColor=default;" vertex="1" connectable="0" parent="3Vo7UrA3a4Yp9gPS8rsH-268">
          <mxGeometry x="-0.1098" y="-1" relative="1" as="geometry">
            <mxPoint as="offset" />
          </mxGeometry>
        </mxCell>
        <mxCell id="3Vo7UrA3a4Yp9gPS8rsH-253" value="是否超出&lt;br&gt;当日剩余票额" style="rhombus;whiteSpace=wrap;html=1;rounded=0;strokeColor=default;align=center;verticalAlign=middle;fontFamily=Helvetica;fontSize=12;fontColor=default;fillColor=default;" vertex="1" parent="3Vo7UrA3a4Yp9gPS8rsH-24">
          <mxGeometry x="308" y="330" width="120" height="60" as="geometry" />
        </mxCell>
        <mxCell id="3Vo7UrA3a4Yp9gPS8rsH-262" style="edgeStyle=orthogonalEdgeStyle;rounded=0;orthogonalLoop=1;jettySize=auto;html=1;exitX=0.5;exitY=1;exitDx=0;exitDy=0;fontFamily=Helvetica;fontSize=12;fontColor=default;" edge="1" parent="3Vo7UrA3a4Yp9gPS8rsH-24" source="3Vo7UrA3a4Yp9gPS8rsH-248" target="3Vo7UrA3a4Yp9gPS8rsH-253">
          <mxGeometry relative="1" as="geometry" />
        </mxCell>
        <mxCell id="3Vo7UrA3a4Yp9gPS8rsH-263" value="是" style="edgeLabel;html=1;align=center;verticalAlign=middle;resizable=0;points=[];rounded=1;strokeColor=default;fontFamily=Helvetica;fontSize=12;fontColor=default;fillColor=default;" vertex="1" connectable="0" parent="3Vo7UrA3a4Yp9gPS8rsH-262">
          <mxGeometry x="-0.4115" y="-3" relative="1" as="geometry">
            <mxPoint as="offset" />
          </mxGeometry>
        </mxCell>
        <mxCell id="3Vo7UrA3a4Yp9gPS8rsH-270" value="报错，预约失败" style="rounded=0;whiteSpace=wrap;html=1;strokeColor=default;align=center;verticalAlign=middle;fontFamily=Helvetica;fontSize=12;fontColor=default;fillColor=default;" vertex="1" parent="3Vo7UrA3a4Yp9gPS8rsH-24">
          <mxGeometry x="496" y="330" width="120" height="60" as="geometry" />
        </mxCell>
        <mxCell id="3Vo7UrA3a4Yp9gPS8rsH-128" style="swimlane;swimlaneHead=0;swimlaneBody=0;fontStyle=1;connectable=0;strokeColor=inherit;fillColor=none;startSize=0;collapsible=0;recursiveResize=0;expand=0;fontSize=16;swimlaneLine=1;" vertex="1" parent="3Vo7UrA3a4Yp9gPS8rsH-22">
          <mxGeometry x="1086" width="320" height="570" as="geometry">
            <mxRectangle width="320" height="570" as="alternateBounds" />
          </mxGeometry>
        </mxCell>
        <mxCell id="3Vo7UrA3a4Yp9gPS8rsH-243" value="登陆元服务&lt;br&gt;获得二维码" style="whiteSpace=wrap;html=1;rounded=0;" vertex="1" parent="3Vo7UrA3a4Yp9gPS8rsH-128">
          <mxGeometry x="100" y="461" width="120" height="60" as="geometry" />
        </mxCell>
        <mxCell id="3Vo7UrA3a4Yp9gPS8rsH-240" style="edgeStyle=orthogonalEdgeStyle;rounded=0;orthogonalLoop=1;jettySize=auto;html=1;exitX=0;exitY=0.5;exitDx=0;exitDy=0;fontFamily=Helvetica;fontSize=12;fontColor=default;" edge="1" parent="3Vo7UrA3a4Yp9gPS8rsH-22" source="3Vo7UrA3a4Yp9gPS8rsH-237" target="3Vo7UrA3a4Yp9gPS8rsH-239">
          <mxGeometry relative="1" as="geometry" />
        </mxCell>
        <mxCell id="3Vo7UrA3a4Yp9gPS8rsH-241" value="通过预约信息中的主要联系人&lt;br&gt;与鸿蒙账户绑定" style="edgeLabel;html=1;align=center;verticalAlign=middle;resizable=0;points=[];rounded=1;strokeColor=default;fontFamily=Helvetica;fontSize=12;fontColor=default;fillColor=default;" vertex="1" connectable="0" parent="3Vo7UrA3a4Yp9gPS8rsH-240">
          <mxGeometry x="0.0173" y="-3" relative="1" as="geometry">
            <mxPoint as="offset" />
          </mxGeometry>
        </mxCell>
        <mxCell id="3Vo7UrA3a4Yp9gPS8rsH-244" style="edgeStyle=orthogonalEdgeStyle;rounded=0;orthogonalLoop=1;jettySize=auto;html=1;entryX=0;entryY=0.5;entryDx=0;entryDy=0;fontFamily=Helvetica;fontSize=12;fontColor=default;" edge="1" parent="3Vo7UrA3a4Yp9gPS8rsH-22" source="3Vo7UrA3a4Yp9gPS8rsH-237" target="3Vo7UrA3a4Yp9gPS8rsH-243">
          <mxGeometry relative="1" as="geometry" />
        </mxCell>
        <mxCell id="3Vo7UrA3a4Yp9gPS8rsH-247" value="通过预约信息中的主要联系人&lt;br&gt;与H5账户绑定" style="edgeLabel;html=1;align=center;verticalAlign=middle;resizable=0;points=[];rounded=1;strokeColor=default;fontFamily=Helvetica;fontSize=12;fontColor=default;fillColor=default;" vertex="1" connectable="0" parent="3Vo7UrA3a4Yp9gPS8rsH-244">
          <mxGeometry x="-0.0839" y="1" relative="1" as="geometry">
            <mxPoint as="offset" />
          </mxGeometry>
        </mxCell>
        <mxCell id="3Vo7UrA3a4Yp9gPS8rsH-228" value="核销" style="shape=tableRow;horizontal=0;swimlaneHead=0;swimlaneBody=0;top=0;left=0;strokeColor=inherit;bottom=0;right=0;dropTarget=0;fontStyle=1;fillColor=none;points=[[0,0.5],[1,0.5]];portConstraint=eastwest;startSize=40;collapsible=0;recursiveResize=0;expand=0;fontSize=16;swimlaneLine=1;" vertex="1" parent="3Vo7UrA3a4Yp9gPS8rsH-13">
          <mxGeometry y="1850" width="1406.000000000001" height="350" as="geometry" />
        </mxCell>
        <mxCell id="3Vo7UrA3a4Yp9gPS8rsH-229" value="" style="swimlane;swimlaneHead=0;swimlaneBody=0;fontStyle=1;connectable=0;strokeColor=inherit;fillColor=none;startSize=0;collapsible=0;recursiveResize=0;expand=0;fontSize=16;swimlaneLine=1;" vertex="1" parent="3Vo7UrA3a4Yp9gPS8rsH-228">
          <mxGeometry x="40" width="310" height="350" as="geometry">
            <mxRectangle width="310" height="350" as="alternateBounds" />
          </mxGeometry>
        </mxCell>
        <mxCell id="3Vo7UrA3a4Yp9gPS8rsH-230" style="swimlane;swimlaneHead=0;swimlaneBody=0;fontStyle=1;connectable=0;strokeColor=inherit;fillColor=none;startSize=0;collapsible=0;recursiveResize=0;expand=0;fontSize=16;swimlaneLine=1;" vertex="1" parent="3Vo7UrA3a4Yp9gPS8rsH-228">
          <mxGeometry x="350" width="736" height="350" as="geometry">
            <mxRectangle width="736" height="350" as="alternateBounds" />
          </mxGeometry>
        </mxCell>
        <mxCell id="3Vo7UrA3a4Yp9gPS8rsH-271" value="从元服务&lt;br&gt;出示二维码" style="whiteSpace=wrap;html=1;rounded=0;" vertex="1" parent="3Vo7UrA3a4Yp9gPS8rsH-230">
          <mxGeometry x="-215" y="90" width="120" height="60" as="geometry" />
        </mxCell>
        <mxCell id="3Vo7UrA3a4Yp9gPS8rsH-278" value="入场" style="whiteSpace=wrap;html=1;rounded=0;" vertex="1" parent="3Vo7UrA3a4Yp9gPS8rsH-230">
          <mxGeometry x="-215" y="215" width="120" height="60" as="geometry" />
        </mxCell>
        <mxCell id="3Vo7UrA3a4Yp9gPS8rsH-272" value="核销二维码" style="whiteSpace=wrap;html=1;rounded=0;" vertex="1" parent="3Vo7UrA3a4Yp9gPS8rsH-230">
          <mxGeometry x="308" y="90" width="120" height="60" as="geometry" />
        </mxCell>
        <mxCell id="3Vo7UrA3a4Yp9gPS8rsH-274" value="从H5&lt;br&gt;出示二维码" style="whiteSpace=wrap;html=1;rounded=0;" vertex="1" parent="3Vo7UrA3a4Yp9gPS8rsH-230">
          <mxGeometry x="836" y="90" width="120" height="60" as="geometry" />
        </mxCell>
        <mxCell id="3Vo7UrA3a4Yp9gPS8rsH-279" value="入场" style="whiteSpace=wrap;html=1;rounded=0;" vertex="1" parent="3Vo7UrA3a4Yp9gPS8rsH-230">
          <mxGeometry x="836" y="215" width="120" height="60" as="geometry" />
        </mxCell>
        <mxCell id="3Vo7UrA3a4Yp9gPS8rsH-273" style="edgeStyle=orthogonalEdgeStyle;rounded=0;orthogonalLoop=1;jettySize=auto;html=1;exitX=1;exitY=0.5;exitDx=0;exitDy=0;fontFamily=Helvetica;fontSize=12;fontColor=default;" edge="1" parent="3Vo7UrA3a4Yp9gPS8rsH-230" source="3Vo7UrA3a4Yp9gPS8rsH-271" target="3Vo7UrA3a4Yp9gPS8rsH-272">
          <mxGeometry relative="1" as="geometry" />
        </mxCell>
        <mxCell id="3Vo7UrA3a4Yp9gPS8rsH-275" style="edgeStyle=orthogonalEdgeStyle;rounded=0;orthogonalLoop=1;jettySize=auto;html=1;exitX=0;exitY=0.5;exitDx=0;exitDy=0;entryX=1;entryY=0.5;entryDx=0;entryDy=0;fontFamily=Helvetica;fontSize=12;fontColor=default;" edge="1" parent="3Vo7UrA3a4Yp9gPS8rsH-230" source="3Vo7UrA3a4Yp9gPS8rsH-274" target="3Vo7UrA3a4Yp9gPS8rsH-272">
          <mxGeometry relative="1" as="geometry" />
        </mxCell>
        <mxCell id="3Vo7UrA3a4Yp9gPS8rsH-280" style="edgeStyle=orthogonalEdgeStyle;rounded=0;orthogonalLoop=1;jettySize=auto;html=1;exitX=0.5;exitY=1;exitDx=0;exitDy=0;entryX=1;entryY=0.5;entryDx=0;entryDy=0;fontFamily=Helvetica;fontSize=12;fontColor=default;" edge="1" parent="3Vo7UrA3a4Yp9gPS8rsH-230" source="3Vo7UrA3a4Yp9gPS8rsH-272" target="3Vo7UrA3a4Yp9gPS8rsH-278">
          <mxGeometry relative="1" as="geometry" />
        </mxCell>
        <mxCell id="3Vo7UrA3a4Yp9gPS8rsH-281" style="edgeStyle=orthogonalEdgeStyle;rounded=0;orthogonalLoop=1;jettySize=auto;html=1;exitX=0.5;exitY=1;exitDx=0;exitDy=0;entryX=0;entryY=0.5;entryDx=0;entryDy=0;fontFamily=Helvetica;fontSize=12;fontColor=default;" edge="1" parent="3Vo7UrA3a4Yp9gPS8rsH-230" source="3Vo7UrA3a4Yp9gPS8rsH-272" target="3Vo7UrA3a4Yp9gPS8rsH-279">
          <mxGeometry relative="1" as="geometry" />
        </mxCell>
        <mxCell id="3Vo7UrA3a4Yp9gPS8rsH-231" style="swimlane;swimlaneHead=0;swimlaneBody=0;fontStyle=1;connectable=0;strokeColor=inherit;fillColor=none;startSize=0;collapsible=0;recursiveResize=0;expand=0;fontSize=16;swimlaneLine=1;" vertex="1" parent="3Vo7UrA3a4Yp9gPS8rsH-228">
          <mxGeometry x="1086" width="320" height="350" as="geometry">
            <mxRectangle width="320" height="350" as="alternateBounds" />
          </mxGeometry>
        </mxCell>
      </root>
    </mxGraphModel>
  </diagram>
</mxfile>
